<svg version="1" xmlns="http://www.w3.org/2000/svg" width="244" height="244" viewBox="0 0 183.000000 183.000000"><path d="M69.4 25.1c-4.2 1.2-6.7 4.2-6.9 8.6-.2 2.5-1 4.3-2.6 5.6-1.3 1-2.4 2.4-2.4 3.1 0 2.5-3.8 6.7-5.7 6.3-2-.6-4.3 2.1-5.3 6.3-.4 2 .1 3 2.8 5.2 3.5 2.8 9.3 4.8 11.5 4 .9-.3.6-.8-.9-1.6-2.8-1.4-3.2-2.6-1.4-4.9 1-1.5 2.9-2 8.2-2.2 5.7-.2 6.9-.5 7.2-2.1.4-2.5 1.9-3.4 5.5-3.4C82.9 50 91 57.6 91 60.9c0 3.3-6.3 2.8-11.9-.9-5-3.4-10.9-4-13.5-1.4-1.8 1.7-2.2 7.9-.6 8.9.6.3 1-.3 1-1.3 0-1.1.8-2.9 1.8-4.1l1.7-2.1 3.5 2.2 3.5 2.2-3.9.6c-5.3.7-6.7 3.1-4 6.7 2.8 3.7 4.9 4.3 4 1-.4-1.8-.1-2.7 1-3.1 2.5-1 3.4-.7 2.8.9-1.5 3.8 4.9 6.1 7.8 2.7 2.9-3.3 3.2-4.5 1-3.3-1.1.6-2.8 1.1-3.7 1.1-1.3 0-1.4-.4-.4-2.1.9-1.8 1.7-2 5.2-1.5 2.3.4 5.2 1.4 6.5 2.2 2.7 1.8 5.2 1.2 5.2-1.2 0-2.8 2.8.3 3.9 4.3 1.2 4.3-.5 9.2-4 11.7-3.7 2.5-5.7 2-7.3-1.9-1.6-3.6-4-4.6-5-2-1.2 3.2-6.2 1.5-17.1-5.9-11.8-8-22.8-10.6-29.6-7-1.7.8-3.3 1.3-3.6 1-.5-.4.7-1.6 5.2-5.1 1.9-1.6 1.9-1.6-.5-.9-5.1 1.4-7 2.4-10.9 5.9-10.1 9.1-10.4 25.5-.7 34.7 2.1 2 7.6 5.1 12.2 6.8l2.5 1-2.4-3.3c-9.5-12.6-5.4-27.3 7.5-27.1 5.9.1 8.7 1.3 22.5 9.5L82 96.8l-4.8 2c-11.1 4.7-19.6 5.5-25 2.2-3.6-2.2-6.2-7.2-6.2-11.9 0-3.8-1.5-4.7-4.5-2.7s-4.2 7.5-2.5 11.9c4 10 11.9 14.7 25.5 15.2 3.1.1 4.9.6 4.8 1.3-.8 3.7 30.5-10.2 37.4-16.7 2-1.9 2.3-1.9 3.1-.5.8 1.4 1.3 1.1 3.6-1.9 1.5-1.9 3.5-5.8 4.5-8.6s2.1-4.8 2.5-4.3c.4.4.6-1.6.5-4.3-.4-5.8-2.9-13.2-6.4-18.3-2.4-3.5-2.4-3.6-.5-5.2 2.7-2.3 2.5-2.9-.7-2.6-3.2.3-10-3-11.4-5.5-.7-1.4-.1-1.7 3.7-2.2 2.5-.2 5-.9 5.5-1.4.5-.5-.5-.7-2.5-.5-4.4.5-10.4-1.4-13.6-4.4-3.2-3-9.1-5.4-13.2-5.4-3.1-.1-3.2-.1-1.4-1.5 2.8-2.2 7.4-1.8 16.6 1.1 8 2.5 11 2.6 11 .4 0-.7-.8-.9-2-.5s-5.7-1-11.7-3.5c-8.8-3.6-10.1-3.9-12.8-2.9-1.6.7-3.6 1.7-4.4 2.3-2.1 1.6-6.4 2-5.5.4.4-.7-.2-.4-1.4.6-1.2 1.1-2.2 1.4-2.2.8 0-1.9 4.5-4.3 9.1-4.8 2.4-.3 4.6-.7 4.8-1 .8-.8-9.3-.2-12.5.7z"/><path d="M126 62.5c-4.8 1.2-4.8 1.3-3.1 8 .6 2.2 1.1 5.9 1.1 8.3 0 4.1.1 4.2 2.6 3.6 4.9-1.2 6.9-1.1 10.2.7 3.3 1.9 4 1.2 2.1-2.2-.9-1.8-.8-1.9 1-.7 3.5 2.1 5 6.4 3.9 11.1-2.1 9.3-9.8 13-27.8 13.3-10.1.1-12 .4-15.5 2.5l-3.9 2.3 8.5 2.7c9.9 3.2 15.2 4.1 23.3 4.1 4.1 0 5.5.3 4.5 1-1 .6-.3.7 2.1.3 5.1-1 12.7-5.4 16.1-9.2 2.2-2.6 2.9-3 2.9-1.6.1 2.9 5.5-4.1 7-9 2.6-8.9.4-19.8-5.3-25.7l-3.2-3.3 3 .6 3 .5-3-2.4c-6.5-5.2-20-7.5-29.5-4.9zM97.1 77.1c-3.9 4.2-4.1 6.3-.7 4.7 2.4-1 5.4-6.3 4.3-7.4-.3-.4-2 .9-3.6 2.7zM63.5 93.7c-2.9.6-9.5 3.5-9.5 4.3 0 2 2.4 2.7 5.2 1.6 1.8-.8 4.4-1 6.8-.6 2.7.5 4.7.2 7.1-1.1l3.4-1.7-3-1.2c-3.5-1.3-7.2-1.8-10-1.3zm-44.6 17.5c.9 2.9 1.7 4.4 1.9 3.4.3-1.2.9-1.5 2-1 8.4 3.5 15 3.8 22 .8 3.1-1.3 3.4-1.7 2-2.5-1.2-.7-2.9-.5-5.4.6-4.5 1.8-11.9 1.9-15.9 0-2.3-1-2.5-1.4-1-1.4 2.5-.1 1-1.6-3.6-3.5l-3.7-1.5 1.7 5.1zm.7 26.1c-1.4 5.1-2.6 9.6-2.6 10 0 .4 1.1.7 2.4.7 2.1 0 2.7-.8 4.1-5.8 2.7-9.8 2.8-9.9 7.4-9.7 2.3.1 4.4.5 4.7.8 1.4 1.3-1 2.7-4.7 2.7-2.1 0-3.9.5-3.9 1 0 .6 1.1 3.3 2.5 6.1 2.3 4.4 2.9 5 5.3 4.7 1.9-.2 2.8-1 3-2.6.2-1.5-.2-2.2-1.2-2.2-2.4 0-1.9-1.9.8-2.9 1.7-.7 2.6-2.2 3.5-5.6.6-2.5.9-5 .6-5.6-.4-.5-4.8-.9-9.9-.9h-9.3l-2.7 9.3zm25.5-5.6c-.6 2.1-1.7 6-2.6 8.8-.8 2.7-1.5 5.5-1.5 6.1 0 .8 3 1.1 9.6 1 9.2-.1 9.7-.2 10-2.3.4-2.2.1-2.3-6.2-2.2-3.6.1-6.7 0-6.9-.2-.2-.2.4-2.6 1.3-5.4l1.7-4.9 6.5-.2c8.2-.2 7.7 0 8.3-2.4.5-1.9 0-2-9.4-2h-9.8l-1 3.7zm23.5-2c-.2 1-1.4 5.1-2.6 9.1-1.1 4-1.8 7.6-1.5 8.1.3.5 4.8.9 9.9.9 11.2 0 11.6-.3 14.2-9.9 2.6-9.7 2.4-9.9-9.5-9.9-8.6 0-10 .2-10.5 1.7zm15.7 3.4c.2.2-.3 2.5-1 5.1l-1.4 4.6-5.9.4c-4.3.2-5.9 0-5.6-.9.3-.6.8-2.8 1.2-4.7.3-2 1.2-4 2-4.4 1.4-.8 10.1-.9 10.7-.1zm10.1-3.6c-1 2.6.5 3.2 7.1 3 3.6-.1 6.5-.1 6.5 0s-.7 2.5-1.5 5.3c-1.7 5.7-1.4 5.5-11.1 5.2-4.7-.1-5.2.1-5.6 2.3l-.5 2.5h9.1c5 0 9.6-.5 10.3-1 .6-.5 1.5-2.8 1.8-5 .4-2.3 1.4-5.7 2.2-7.6 2.3-5.6 1.5-6.2-8.7-6.2-7 0-9.2.3-9.6 1.5zm23.8-.3c-1.5 1.9-5.4 16.7-4.7 17.8.6 1 18.7 1.1 20.3.1 1.3-.8 3.8-9.8 3-10.7-.4-.3-4-.6-8.2-.6-6.7 0-7.5-.2-6.6-1.7.6-1.3 2.1-1.7 6.1-1.5 2.9 0 5.5.6 5.6 1.1.7 2 5.1.2 5.6-2.3.2-1.3.2-2.6-.1-2.9-1.2-1.1-20-.5-21 .7zm12.6 12.5c.4 1.3-3.1 1.8-8.8 1.3-3-.2-3.4-.5-2.6-1.8.9-1.4 10.9-.9 11.4.5zm12.9-13c-.3.5-1.2 3.2-2 6-1.8 5.9-2.2 5.6 6.6 5.5 4.4-.1 5.7.2 5.7 1.3 0 1.4-5 2.1-11.7 1.5-2.2-.1-5.1 3.4-3.5 4.4 1.2.7 16.8.5 18-.3 1.7-1 4-8.8 3.1-10.3-.6-.9-2.6-1.2-6.3-1-3.1.1-5.7-.2-6.1-.8-1.1-1.8.1-2.2 6.3-2.4 6.3-.2 8.2-1 8.2-3.2 0-1.1-1.8-1.4-8.9-1.4-5 0-9.2.3-9.4.7z"/><path d="M52.8 135.8c-2.7.3-4.6 3.1-2.9 4.2.9.5 2.3.5 9.4.1 1.1-.1 1.7-.9 1.7-2.4 0-2.3-1.7-2.7-8.2-1.9zm43.6 0c-3.1.4-3.9 4.2-1.1 4.3 1.2 0 3.5.2 5.1.3 2.8.2 5.6-1.6 5.6-3.5 0-.5-.6-.9-1.2-1-.7 0-2.4-.1-3.8-.2s-3.5-.1-4.6.1zM16 158.4c0 1.2 5.9 1.4 41.3 1.1 22.6-.2 49.5-.4 59.6-.4 10.1-.1 18.2-.3 18-.5-.2-.3-27.1-.7-59.7-1.1-51.1-.5-59.2-.4-59.2.9zm122.8.3c.7.3 1.6.2 1.9-.1.4-.3-.2-.6-1.3-.5-1.1 0-1.4.3-.6.6zm4 0c.7.3 1.6.2 1.9-.1.4-.3-.2-.6-1.3-.5-1.1 0-1.4.3-.6.6zm4 0c.7.3 1.6.2 1.9-.1.4-.3-.2-.6-1.3-.5-1.1 0-1.4.3-.6.6zm4 0c.7.3 1.6.2 1.9-.1.4-.3-.2-.6-1.3-.5-1.1 0-1.4.3-.6.6zm4 0c.7.3 1.6.2 1.9-.1.4-.3-.2-.6-1.3-.5-1.1 0-1.4.3-.6.6z"/></svg>